<svg xmlns="http://www.w3.org/2000/svg" xmlns:xlink="http://www.w3.org/1999/xlink" width="500" zoomAndPan="magnify" viewBox="0 0 375 374.999991" height="500" preserveAspectRatio="xMidYMid meet" version="1.0"><defs><g/></defs><rect x="-37.5" width="450" fill="#ffffff" y="-37.499999" height="449.999989" fill-opacity="1"/><rect x="-37.5" width="450" fill="#ffffff" y="-37.499999" height="449.999989" fill-opacity="1"/><rect x="-37.5" width="450" fill="#1c2120" y="-37.499999" height="449.999989" fill-opacity="1"/><g fill="#ffffff" fill-opacity="1"><g transform="translate(71.899609, 306.942739)"><g><path d="M 113.03125 -261.84375 C 103.894531 -261.34375 97.234375 -260.328125 93.046875 -258.796875 C 88.867188 -257.273438 86.015625 -254.359375 84.484375 -250.046875 C 82.960938 -245.734375 82.203125 -238.757812 82.203125 -229.125 L 82.203125 -40.34375 C 82.203125 -30.695312 82.960938 -23.71875 84.484375 -19.40625 C 86.015625 -15.09375 88.867188 -12.238281 93.046875 -10.84375 C 97.234375 -9.445312 103.894531 -8.75 113.03125 -8.75 L 140.8125 -8.75 C 156.550781 -8.75 168.539062 -10.96875 176.78125 -15.40625 C 185.03125 -19.851562 191.054688 -27.023438 194.859375 -36.921875 C 198.671875 -46.816406 201.460938 -61.148438 203.234375 -79.921875 L 211.984375 -79.921875 C 211.222656 -72.054688 210.84375 -61.65625 210.84375 -48.71875 C 210.84375 -34.25 211.734375 -18.007812 213.515625 0 C 196.253906 -0.757812 167.203125 -1.140625 126.359375 -1.140625 C 77.640625 -1.140625 40.847656 -0.757812 15.984375 0 L 15.984375 -7.609375 C 25.117188 -8.117188 31.78125 -9.132812 35.96875 -10.65625 C 40.15625 -12.175781 43.007812 -15.09375 44.53125 -19.40625 C 46.050781 -23.71875 46.8125 -30.695312 46.8125 -40.34375 L 46.8125 -229.125 C 46.8125 -238.757812 46.050781 -245.734375 44.53125 -250.046875 C 43.007812 -254.359375 40.15625 -257.273438 35.96875 -258.796875 C 31.78125 -260.328125 25.117188 -261.34375 15.984375 -261.84375 L 15.984375 -269.453125 C 26.640625 -268.691406 42.878906 -268.3125 64.703125 -268.3125 C 85.003906 -268.3125 101.113281 -268.691406 113.03125 -269.453125 Z M 113.03125 -261.84375 "/></g></g></g><g fill="#ffffff" fill-opacity="1"><g transform="translate(161.684334, 246.289864)"><g><path d="M 67.359375 -67.359375 C 80.566406 -65.554688 89.988281 -61.742188 95.625 -55.921875 C 101.269531 -50.097656 104.09375 -43.101562 104.09375 -34.9375 C 104.09375 -28.09375 102.351562 -22.03125 98.875 -16.75 C 95.394531 -11.46875 90.410156 -7.351562 83.921875 -4.40625 C 77.441406 -1.46875 69.757812 0 60.875 0 C 57.632812 0 54.875 -0.0625 52.59375 -0.1875 C 44.90625 -0.425781 37.335938 -0.546875 29.890625 -0.546875 C 20.046875 -0.546875 12.601562 -0.363281 7.5625 0 L 7.5625 -3.609375 C 11.882812 -3.847656 15.035156 -4.328125 17.015625 -5.046875 C 18.992188 -5.765625 20.34375 -7.144531 21.0625 -9.1875 C 21.789062 -11.226562 22.15625 -14.53125 22.15625 -19.09375 L 22.15625 -108.421875 C 22.15625 -112.984375 21.789062 -116.285156 21.0625 -118.328125 C 20.34375 -120.367188 18.992188 -121.75 17.015625 -122.46875 C 15.035156 -123.1875 11.882812 -123.664062 7.5625 -123.90625 L 7.5625 -127.5 C 12.601562 -127.144531 19.925781 -126.96875 29.53125 -126.96875 L 48.984375 -127.140625 C 51.265625 -127.265625 53.847656 -127.328125 56.734375 -127.328125 C 68.972656 -127.328125 78.363281 -124.742188 84.90625 -119.578125 C 91.457031 -114.421875 94.734375 -107.578125 94.734375 -99.046875 C 94.734375 -92.085938 92.539062 -85.84375 88.15625 -80.3125 C 83.769531 -74.789062 76.835938 -70.59375 67.359375 -67.71875 Z M 52.234375 -123.90625 C 48.503906 -123.90625 45.707031 -123.484375 43.84375 -122.640625 C 41.988281 -121.804688 40.703125 -120.304688 39.984375 -118.140625 C 39.265625 -115.984375 38.90625 -112.742188 38.90625 -108.421875 L 38.90625 -67.71875 L 50.96875 -67.71875 C 60.8125 -67.71875 67.679688 -70.390625 71.578125 -75.734375 C 75.484375 -81.078125 77.4375 -88.191406 77.4375 -97.078125 C 77.4375 -106.078125 75.453125 -112.796875 71.484375 -117.234375 C 67.523438 -121.679688 61.109375 -123.90625 52.234375 -123.90625 Z M 52.40625 -4.140625 C 74.851562 -4.140625 86.078125 -14.644531 86.078125 -35.65625 C 86.078125 -45.144531 83.523438 -52.347656 78.421875 -57.265625 C 73.328125 -62.191406 65.195312 -64.65625 54.03125 -64.65625 L 38.90625 -64.65625 L 38.90625 -19.09375 C 38.90625 -14.769531 39.265625 -11.585938 39.984375 -9.546875 C 40.703125 -7.503906 41.988281 -6.09375 43.84375 -5.3125 C 45.707031 -4.53125 48.5625 -4.140625 52.40625 -4.140625 Z M 52.40625 -4.140625 "/></g></g></g></svg>