<svg xmlns="http://www.w3.org/2000/svg" id="svg9056" viewBox="0 0 8249.6992 3263.6947" style="clip-rule:evenodd;fill-rule:evenodd;image-rendering:optimizeQuality;shape-rendering:geometricPrecision;text-rendering:geometricPrecision" version="1.1" height="32.641647mm" width="82.508896mm" xml:space="preserve">
 <defs id="defs9014"><style id="style9012" type="text/css">
   
    .fil7 {fill:#2B2A29}
    .fil1 {fill:#FECF30}
    .fil3 {fill:#E5097F}
    .fil2 {fill:#B0CB1F}
    .fil5 {fill:#57A7B3}
    .fil0 {fill:#264796}
    .fil6 {fill:#727271;fill-rule:nonzero}
    .fil4 {fill:#2B2A29;fill-rule:nonzero}
   
  </style></defs>
 <g transform="translate(0,0.01)" id="Layer_x0020_1">
  <metadata id="CorelCorpID_0Corel-Layer"></metadata>
  <path id="path9017" d="m 425.94,1575.18 c 92.26,-9.4 227.17,-44.31 372.46,-90.54 14.88,-116.47 30.93,-246.66 47.45,-392.48 33.61,-296.42 479.11,-283.66 732.06,-332.97 51.78,-10.1 99.99,-19.91 145.31,-29.34 11.42,-218.41 -19.25,-474.6 -41.73,-695.18 -594.7,203.95 -1987.38,1615.1 -1255.55,1540.51 z" class="fil0"></path>
  <path id="path9019" d="m 2040.42,273.37 c -2.03,3.85 -50.35,189.07 -82.92,406.51 521.09,-110.95 466.02,-66.27 868,620.21 94.58,161.54 167.05,283.72 216.74,382.39 C 3693.81,1360.11 2962.09,380.25 2702,-0.01 l -63.52,13.93 c -312.03,72.24 -484.43,43.39 -598.06,259.44 z" class="fil1"></path>
  <path id="path9021" d="m 0,1904.75 c 154.04,305.54 460.39,731.82 730.68,928.38 79.42,57.78 240.18,180.02 305.8,207.33 56.44,-61.5 143.32,-182.27 206.83,-295.68 C 677.56,2490.05 657.7,2558.84 763.85,1749.73 576.4,1584.36 527.3,1729.34 0,1904.75 Z" class="fil2"></path>
  <path id="path9023" d="m 3101.8,2455.74 c 20.6,-187.54 11.96,-176.35 -77.22,-282.14 l -4.02,-3.94 c -82.16,102.8 -214.7,229.48 -400.17,425.9 -500.72,530.33 -438.11,588.19 -1027.78,311.84 4.36,52.67 21.31,100.35 53.88,140.96 38.6,48.2 880.06,423.78 1133.06,54.47 z" class="fil3"></path>
  <path id="path9025" d="m 3936.12,857.96 h 315.2 c 33.94,0 65.91,-3.59 95.93,-10.77 30.03,-7.18 56.12,-19.25 78.32,-36.21 22.19,-16.97 39.47,-38.5 51.87,-64.61 12.41,-26.1 18.61,-58.07 18.61,-95.93 0,-36.54 -6.53,-67.54 -19.58,-93 -13.06,-25.45 -30.68,-46 -52.86,-61.67 -22.19,-15.66 -47.97,-27.08 -77.34,-34.26 -29.37,-7.18 -59.71,-10.77 -91.04,-10.77 h -139 -358.27 V 123.79 h 462.03 c 39.15,0 78.64,0.65 118.44,1.96 39.81,1.3 79.29,5.22 118.44,11.75 39.16,6.52 77.01,16.97 113.55,31.33 36.54,14.36 71.13,33.94 103.77,58.73 60.04,49.59 105.06,109.63 135.09,180.11 30.02,70.48 45.02,144.22 45.02,221.23 0,56.12 -8.16,109.96 -24.48,161.52 -16.31,51.55 -40.13,97.89 -71.45,139 -31.33,41.11 -69.51,75.7 -114.53,103.77 -45.03,28.07 -96.26,46.66 -153.69,55.79 l 395.47,499.24 h -426.8 L 3936.1,857.97 Z" class="fil4"></path>
  <polygon id="polygon9027" points="5637.44,1588.21 5441.66,1588.21 5279.16,1588.21 5081.43,1588.21 5065.76,1588.21 4869.99,1588.21 4869.99,1257.35 5065.76,1257.35 5065.76,448.79 4869.99,448.79 4869.99,119.87 5065.76,119.87 5441.66,119.87 5637.44,119.87 5637.44,448.79 5441.66,448.79 5441.66,1257.35 5637.44,1257.35" class="fil4"></polygon>
  <path id="path9029" d="m 7227.15,754.2 -493.36,792.9 c -37.85,13.05 -78.31,23.17 -121.38,30.35 -43.07,7.18 -87.45,10.77 -133.13,10.77 -57.43,0 -112.24,-5.87 -164.46,-17.62 -84.84,-18.28 -162.82,-49.6 -233.95,-93.98 -71.14,-44.37 -132.81,-98.22 -185.01,-161.52 -52.21,-63.3 -93,-134.76 -122.36,-214.38 -29.37,-79.61 -44.05,-164.45 -44.05,-254.5 0,-105.72 19.91,-202.96 59.71,-291.72 39.81,-88.75 94.31,-165.43 163.48,-230.04 69.18,-64.6 149.45,-114.85 240.81,-150.75 91.37,-35.89 189.25,-53.84 293.67,-53.84 58.73,0 116.81,6.86 174.24,20.56 57.43,13.71 112.57,33.62 165.44,59.72 52.85,26.1 102.46,58.07 148.79,95.93 46.33,37.85 86.47,80.27 120.4,127.25 44.37,61.35 76.35,126.61 95.93,195.78 h -229.06 -174.24 c -33.94,-58.73 -77.66,-104.08 -131.17,-136.06 -53.51,-31.99 -113.54,-47.97 -180.11,-47.97 -57.42,0 -109.96,11.1 -157.6,33.29 -47.64,22.19 -88.43,51.88 -122.36,89.08 -33.94,37.19 -60.36,80.92 -79.29,131.17 -18.93,50.25 -28.39,102.79 -28.39,157.61 0,57.42 9.13,111.91 27.41,163.47 18.27,51.56 44.05,96.59 77.33,135.09 33.29,38.5 73.75,69.17 121.38,92.02 47.64,22.84 101.49,34.26 161.52,34.26 7.83,0 15.01,-0.32 21.54,-0.97 6.53,-0.66 13.05,-0.98 19.58,-0.98 l 154.67,-225.15 H 6395.12 V 754.22 h 475.74 356.32 z" class="fil4"></path>
  <polygon id="polygon9031" points="7875.76,671.97 7871.84,671.97 7319.75,1588.21 6869.46,1588.21 7877.71,119.87 8249.7,119.87 8249.7,1588.21 7875.76,1588.21" class="fil4"></polygon>
  <path id="path9033" d="m 4471.28,3157.84 c -103.11,0 -200.02,-18.93 -290.73,-56.77 -90.71,-37.85 -169.68,-89.74 -236.9,-155.65 -67.21,-65.91 -120.4,-143.9 -159.56,-233.96 -39.15,-90.06 -58.73,-187.29 -58.73,-291.71 0,-103.11 19.26,-199.04 57.75,-287.79 38.5,-88.76 91.04,-166.09 157.61,-232 66.56,-65.91 144.87,-117.47 234.93,-154.67 90.07,-37.19 186.64,-55.8 289.76,-55.8 130.51,0 249.61,28.4 357.29,85.17 107.68,56.77 196.76,138.68 267.24,245.7 22.19,36.54 41.76,74.39 58.73,113.54 16.97,39.16 28.72,79.62 35.24,121.38 h -377.86 c -28.72,-73.09 -73.09,-132.8 -133.13,-179.13 -60.04,-46.33 -129.21,-69.5 -207.52,-69.5 -57.43,0 -109.63,11.42 -156.63,34.27 -46.98,22.84 -87.12,53.18 -120.4,91.04 -33.28,37.84 -58.73,81.57 -76.35,131.17 -17.62,49.59 -26.44,101.81 -26.44,156.62 0,54.82 8.82,107.35 26.44,157.61 17.62,50.24 43.07,94.95 76.35,134.1 33.29,39.15 73.42,70.48 120.4,93.98 46.99,23.5 99.2,35.23 156.63,35.23 80.92,0 150.1,-22.19 207.52,-66.56 57.43,-44.37 101.81,-101.81 133.13,-172.29 h 377.86 c -20.89,83.53 -53.84,159.56 -98.88,228.08 -45.02,68.53 -98.87,126.93 -161.52,175.22 -62.64,48.29 -132.47,85.82 -209.48,112.57 -77.01,26.76 -157.93,40.13 -242.76,40.13 z" class="fil4"></path>
  <path id="path9035" d="m 6644.92,1689.51 v 328.91 624.53 185.99 328.9 h -328.9 -121.38 -319.11 -5.88 c -75.7,0 -150.75,-11.75 -225.14,-35.24 -74.4,-23.49 -139.01,-63.95 -193.82,-121.37 -33.94,-35.24 -60.37,-69.51 -79.29,-102.79 -18.93,-33.29 -33.29,-68.2 -43.07,-104.74 -9.79,-36.54 -15.99,-74.72 -18.6,-114.53 -2.61,-39.8 -3.92,-83.2 -3.92,-130.19 v -859.47 h 375.9 v 859.47 c 0,32.64 1.96,65.59 5.87,98.88 3.92,33.28 12.4,63.3 25.46,90.06 13.05,26.76 32.31,48.61 57.75,65.58 25.46,16.97 59.06,25.46 100.83,25.46 h 323.03 121.38 v -185.99 -953.44 h 328.9 z" class="fil4"></path>
  <path id="path9037" d="m 7737.92,1797.19 c 58.73,46.98 102.14,104.08 130.19,171.31 28.07,67.22 42.09,138.67 42.09,214.38 0,33.94 -3.26,68.84 -9.79,104.73 -6.53,35.89 -15.99,70.81 -28.39,104.74 -12.4,33.94 -28.39,66.24 -47.97,96.91 -19.58,30.68 -42.41,57.1 -68.52,79.29 -31.33,28.72 -63.62,51.56 -96.91,68.53 -33.29,16.97 -67.54,30.02 -102.79,39.15 -35.23,9.13 -71.79,15.01 -109.63,17.62 -37.85,2.61 -77.01,3.92 -117.46,3.92 h -68.53 v -328.91 h 56.78 c 30.02,0 59.38,-2.28 88.1,-6.85 28.72,-4.57 53.84,-13.38 75.38,-26.44 21.53,-13.05 38.82,-31 51.87,-53.83 13.06,-22.85 19.58,-53.19 19.58,-91.04 0,-39.15 -7.18,-70.16 -21.53,-93 -14.36,-22.84 -33.29,-40.13 -56.78,-51.88 -23.49,-11.75 -49.92,-19.25 -79.29,-22.52 -29.37,-3.26 -59.71,-4.89 -91.04,-4.89 h -137.04 v 350.44 328.91 460.07 H 6806 V 1689.49 h 479.66 c 37.84,0 77.01,0.98 117.46,2.94 40.46,1.96 80.27,6.2 119.42,12.73 39.15,6.53 77.34,17.3 114.53,32.31 37.19,15.01 70.81,34.91 100.83,59.71 z" class="fil4"></path>
  <path id="path9039" d="m 924.75,1144.57 c -163.63,1443.3 -275.79,1235.65 426.45,1559.71 840.01,387.57 690.88,395.83 1220.13,-164.73 563.96,-597.21 601.3,-500.13 190.32,-1202.05 -445.97,-761.6 -285.46,-671.93 -1157.63,-501.9 -234.71,45.75 -648.1,33.93 -679.27,308.97 z m 337.49,196.94 c -92.77,818.29 -156.36,700.56 241.78,884.28 476.25,219.74 391.7,224.42 691.77,-93.39 319.73,-338.6 340.9,-283.56 107.9,-681.51 -252.84,-431.79 -161.85,-380.96 -656.33,-284.56 -133.07,25.95 -367.45,19.24 -385.12,175.17 z" class="fil5"></path>
  
  <path id="path9043" d="m 1954.34,1515.4 c -463.29,-69.19 -395.09,-102.97 -507.54,119.66 -134.49,266.31 -135.45,218.15 39.17,395.11 186.05,188.57 154.33,199.5 385.24,75.05 250.53,-135.05 219.81,-84.35 174.95,-367.38 -12.07,-76.17 -3.55,-209.26 -91.84,-222.45 z" class="fil7"></path>
  <path id="path9045" d="m 2216.14,2468.01 c -11.48,76.86 -7.74,72.39 27.27,117.35 l 204.04,215.82 c 100.25,-47.41 489.33,-402.29 377.16,-553.83 -15.12,-20.46 -355.45,-188.49 -465.48,-40.53 l -142.98,261.19 z" class="fil7"></path>
  <path id="path9047" d="m 2219.57,1150.97 c -0.55,3.71 30.45,373.46 135.15,389.09 120.92,18.06 310.03,69.79 385.03,3.93 225.9,-198.34 -173.58,-467.52 -317.53,-573.57 l -21,12.92 c -102.67,64.87 -167.98,76.09 -181.65,167.63 z" class="fil7"></path>
  <path id="path9049" d="m 799.11,1957.73 c 11.01,136.26 60.19,340.14 130.62,453.57 20.69,33.35 61.78,102.79 81.95,122.77 48.33,-22.87 148.57,-90.34 177.29,-134.16 52.65,-80.26 1.06,-147.74 -24.53,-223.46 -98.73,-292.26 -63.13,-198.97 -365.34,-218.73 z" class="fil7"></path>
  <path id="path9051" d="m 1385.61,2853.42 c 200.83,79.57 165.6,77.25 372.39,108.31 l 10.37,1.55 10.78,1.61 11.18,1.67 c 86.37,12.9 79.26,-3.95 157.23,5.91 42.92,-287.44 -114.49,-256.45 -239.07,-281.8 -139.59,-28.39 -213.4,-113.62 -322.87,162.75 z" class="fil7"></path>
  <path id="path9053" d="m 1157.73,1203.21 c 86.93,12.98 318.12,-16.94 357,-33.98 79.71,-34.95 98.81,-194.93 117.01,-316.85 -185.95,15.02 -689.9,318.58 -474.01,350.83 z" class="fil7"></path>
 </g>
</svg>
